<svg width="200" height="32" viewBox="0 0 200 32" fill="none" xmlns="http://www.w3.org/2000/svg">
<g clip-path="url(#clip0)">
<path fill-rule="evenodd" clip-rule="evenodd" d="M6.17419 24.0496C6.17419 24.0496 19.134 23.6532 26.0831 9.26854C26.0858 9.2376 26.0894 9.20667 26.0929 9.17476C26.3662 6.15939 25.9313 3.95127 24.5581 2.58908C25.651 3.74535 25.8126 5.6934 24.2822 8.51349C20.6528 15.1987 13.4483 19.5763 10.0626 19.1268C7.45633 18.7826 7.5224 11.6188 12.4831 1.99548C11.7992 2.16467 11.0885 2.35319 10.3456 2.56395H10.3438C3.13044 15.221 6.17419 24.0496 6.17419 24.0496Z" fill="#000B1B"/>
<mask id="mask0" mask-type="alpha" maskUnits="userSpaceOnUse" x="0" y="2" width="27" height="30">
<path d="M0.000976562 2.56421H26.083V31.8815H0.000976562V2.56421Z" fill="white"/>
</mask>
<g mask="url(#mask0)">
<path fill-rule="evenodd" clip-rule="evenodd" d="M4.11411 7.20667C0.211429 14.7195 -1.69214 27.2373 1.92839 30.8327C5.39982 34.2822 17.09 28.4419 21.0284 24.5864C23.0391 22.6171 25.3293 17.412 26.0829 9.2688C19.1338 23.6525 6.17393 24.0508 6.17393 24.0508C6.17393 24.0508 3.13018 15.2212 10.3436 2.56421C6.37571 3.6905 5.26946 4.98212 4.11411 7.20667Z" fill="white"/>
</g>
<mask id="mask1" mask-type="alpha" maskUnits="userSpaceOnUse" x="8" y="0" width="18" height="20">
<path d="M8.35742 0.966797H25.4044V19.1595H8.35742V0.966797Z" fill="white"/>
</mask>
<g mask="url(#mask1)">
<path fill-rule="evenodd" clip-rule="evenodd" d="M10.0627 19.1279C13.4493 19.5765 20.6528 15.198 24.2823 8.51369C25.8127 5.69264 25.651 3.74652 24.5582 2.58832C22.6252 0.669268 18.8252 0.429508 12.4832 1.99569C7.52247 11.617 7.4564 18.7828 10.0627 19.1279Z" fill="white"/>
</g>
<path fill-rule="evenodd" clip-rule="evenodd" d="M174.129 9.27136L171.049 18.5921C171.049 18.5921 170.785 19.582 170.592 20.2878C170.397 19.582 170.133 18.5921 170.133 18.5921L167.054 9.27136H165.047L169.606 22.6129H171.577L176.136 9.27136H174.129Z" fill="white"/>
<path fill-rule="evenodd" clip-rule="evenodd" d="M199.68 21.0116C199.505 21.0696 199.223 21.1257 199.029 21.1257C198.184 21.1257 197.832 20.6694 197.832 19.7355V14.7218H199.786V13.1594H197.832V10.6052H196.037V13.1594H194.629V14.7218H196.037V20.0777C196.037 22.2326 197.217 22.8794 198.536 22.8794C199.047 22.8794 199.505 22.7837 199.839 22.6503L199.68 21.0116Z" fill="white"/>
<path fill-rule="evenodd" clip-rule="evenodd" d="M177.598 16.8187C177.933 15.4458 178.953 14.4559 180.256 14.4559C181.47 14.4559 182.668 15.2747 182.808 16.8187H177.598ZM180.291 12.8926C177.809 12.8926 175.802 14.9325 175.802 17.886C175.802 20.8395 177.809 22.8803 180.202 22.8803C181.977 22.8803 183.177 22.1011 183.989 20.6287L182.512 19.8756C182.036 20.6529 181.385 21.1827 180.256 21.1827C178.707 21.1827 177.669 19.9819 177.598 18.3056H184.515V17.6191C184.515 14.8551 182.825 12.8926 180.291 12.8926Z" fill="white"/>
<path fill-rule="evenodd" clip-rule="evenodd" d="M190.371 16.9499C188.988 16.6164 188.203 16.1717 188.222 15.348C188.235 14.6625 188.948 14.2681 189.776 14.2884C190.574 14.3077 191.037 14.6741 191.366 15.2213L192.742 14.561C192.174 13.5768 191.274 12.7957 189.772 12.7589C188.135 12.7183 186.636 13.6619 186.6 15.406C186.564 17.1307 187.884 18.0066 189.512 18.4185C190.913 18.7665 191.685 19.159 191.667 19.9817C191.651 20.8238 190.859 21.3536 189.857 21.3294C188.924 21.3062 188.238 20.7078 187.794 19.8241L186.213 20.584C186.805 21.9008 187.982 22.9884 189.803 23.0338C191.95 23.086 193.212 21.6852 193.249 19.9614C193.279 18.5016 192.21 17.3937 190.371 16.9499Z" fill="white"/>
<path fill-rule="evenodd" clip-rule="evenodd" d="M34.1265 16.4184H39.864V15.0079H34.1265V10.6815H40.3578V9.27197H32.6479V22.6125H40.4104V21.202H34.1265V16.4184Z" fill="white"/>
<mask id="mask2" mask-type="alpha" maskUnits="userSpaceOnUse" x="0" y="0" width="200" height="32">
<path d="M0.000976562 31.8824H199.839V0.966797H0.000976562V31.8824Z" fill="white"/>
</mask>
<g mask="url(#mask2)">
<path fill-rule="evenodd" clip-rule="evenodd" d="M42.7029 11.521H44.3573V9.65222H42.7029V11.521Z" fill="white"/>
<path fill-rule="evenodd" clip-rule="evenodd" d="M42.8438 22.612H44.217V13.1608H42.8438V22.612Z" fill="white"/>
<path fill-rule="evenodd" clip-rule="evenodd" d="M61.4041 12.8931C60.1371 12.8931 59.0808 13.6365 58.4648 14.817V13.1589H57.0916V22.613H58.4648V17.3721C58.4648 15.428 59.6612 14.2272 60.9996 14.2272C62.2308 14.2272 63.0933 14.9697 63.0933 16.4576V22.613H64.4666V16.1888C64.4666 13.8647 62.9532 12.8931 61.4041 12.8931Z" fill="white"/>
<path fill-rule="evenodd" clip-rule="evenodd" d="M70.8078 21.5071C69.1534 21.5071 67.8328 20.0773 67.8328 17.8856C67.8328 15.6939 69.1534 14.265 70.8078 14.265C72.4623 14.265 73.765 15.6939 73.765 17.8856C73.765 20.0773 72.4623 21.5071 70.8078 21.5071ZM73.6587 14.876C73.1311 13.6356 72.0052 12.8922 70.5614 12.8922C68.3784 12.8922 66.4248 14.9698 66.4248 17.8856C66.4248 20.8023 68.2025 22.879 70.6498 22.879C71.9873 22.879 73.0078 22.1549 73.6587 20.9155V22.6131H75.0319V9.27161H73.6587V14.876Z" fill="white"/>
<path fill-rule="evenodd" clip-rule="evenodd" d="M81.639 21.545C79.8613 21.545 78.4881 20.001 78.4881 17.8857C78.4881 15.7704 79.8613 14.2265 81.639 14.2265C83.4167 14.2265 84.7899 15.7704 84.7899 17.8857C84.7899 20.001 83.4167 21.545 81.639 21.545ZM81.639 12.8923C79.4569 12.8923 77.0801 14.6654 77.0801 17.8857C77.0801 21.107 79.4569 22.8791 81.639 22.8791C83.8211 22.8791 86.1979 21.107 86.1979 17.8857C86.1979 14.6654 83.8211 12.8923 81.639 12.8923Z" fill="white"/>
<path fill-rule="evenodd" clip-rule="evenodd" d="M97.3463 12.8931C96.1142 12.8931 95.199 13.5031 94.5829 14.6845C94.2312 13.4451 93.2803 12.8931 92.2062 12.8931C90.9919 12.8931 90.024 13.7506 89.6196 14.6661V13.1589H88.2463V22.613H89.6196V17.5433C89.6196 15.1988 90.6579 14.2272 91.8017 14.2272C92.8579 14.2272 93.4035 14.932 93.4035 16.1337V22.613H94.7758V17.5046C94.7758 15.1611 95.7972 14.2272 96.9231 14.2272C98.0151 14.2272 98.5606 14.8933 98.5606 15.9616V22.613H99.9329V15.428C99.9329 13.883 98.8597 12.8931 97.3463 12.8931Z" fill="white"/>
<path fill-rule="evenodd" clip-rule="evenodd" d="M119.766 12.8931C118.534 12.8931 117.62 13.5031 117.003 14.6845C116.652 13.4451 115.7 12.8931 114.627 12.8931C113.413 12.8931 112.446 13.7506 112.04 14.6661V13.1589H110.667V22.613H112.04V17.5433C112.04 15.1988 113.079 14.2272 114.223 14.2272C115.279 14.2272 115.823 14.932 115.823 16.1337V22.613H117.197V17.5046C117.197 15.1611 118.218 14.2272 119.344 14.2272C120.435 14.2272 120.981 14.8933 120.981 15.9616V22.613H122.354V15.428C122.354 13.883 121.28 12.8931 119.766 12.8931Z" fill="white"/>
<path fill-rule="evenodd" clip-rule="evenodd" d="M138.881 21.1258C137.243 21.1258 136.047 19.8293 136.047 17.6773C136.047 15.5223 137.243 14.2259 138.881 14.2259C140.517 14.2259 141.767 15.5223 141.767 17.6773C141.767 19.8293 140.517 21.1258 138.881 21.1258ZM141.661 14.8562C141.186 13.6545 140.06 12.8927 138.669 12.8927C136.487 12.8927 134.639 14.6271 134.639 17.6773C134.639 20.5921 136.451 22.4599 138.722 22.4599C140.007 22.4599 141.081 21.7368 141.661 20.5157V22.1351C141.661 24.3084 140.799 25.5304 138.863 25.5304C137.838 25.5304 137.003 25.3167 136.34 24.6516L135.219 25.3022C135.923 26.009 137.003 26.8355 138.799 26.8355C141.62 26.8355 143.034 25.0132 143.034 22.1167V13.1605H141.661V14.8562Z" fill="white"/>
<path fill-rule="evenodd" clip-rule="evenodd" d="M145.576 22.6119H146.948V9.27136H145.576V22.6119Z" fill="white"/>
<path fill-rule="evenodd" clip-rule="evenodd" d="M161.145 14.8747V13.1606H159.771V22.6118H161.145V17.4473C161.145 15.5041 162.165 14.2647 163.362 14.2647C163.627 14.2647 163.838 14.3024 164.049 14.3788L164.278 12.9885C164.084 12.9305 163.82 12.8928 163.679 12.8928C162.447 12.8928 161.62 13.7504 161.145 14.8747Z" fill="white"/>
<path fill-rule="evenodd" clip-rule="evenodd" d="M47.8123 16.9141C48.1293 15.2938 49.1498 14.1511 50.7168 14.1511C52.0543 14.1511 53.4623 15.1217 53.5498 16.9141H47.8123ZM50.7168 12.8923C48.2873 12.8923 46.3337 14.9699 46.3337 17.8857C46.3337 20.8015 48.2873 22.8791 50.6632 22.8791C52.44 22.8791 53.598 22.039 54.4025 20.6043L53.3391 20.0629C52.7936 20.9765 52.0284 21.6214 50.7168 21.6214C48.9034 21.6214 47.7945 20.1161 47.707 18.1342H54.923V17.6189C54.923 14.8559 53.3391 12.8923 50.7168 12.8923Z" fill="white"/>
<path fill-rule="evenodd" clip-rule="evenodd" d="M125.848 16.9141C126.165 15.2938 127.186 14.1511 128.753 14.1511C130.09 14.1511 131.498 15.1217 131.587 16.9141H125.848ZM128.753 12.8923C126.324 12.8923 124.37 14.9699 124.37 17.8857C124.37 20.8015 126.324 22.8791 128.7 22.8791C130.477 22.8791 131.634 22.038 132.439 20.6043L131.375 20.0629C130.829 20.9755 130.065 21.6214 128.753 21.6214C126.94 21.6214 125.831 20.1161 125.744 18.1342H132.96V17.6189C132.96 14.8559 131.375 12.8923 128.753 12.8923Z" fill="white"/>
<path fill-rule="evenodd" clip-rule="evenodd" d="M150.512 16.9141C150.828 15.2938 151.85 14.1511 153.417 14.1511C154.753 14.1511 156.162 15.1217 156.25 16.9141H150.512ZM153.417 12.8923C150.987 12.8923 149.034 14.9699 149.034 17.8857C149.034 20.8015 150.987 22.8791 153.364 22.8791C155.139 22.8791 156.298 22.038 157.102 20.6043L156.039 20.0629C155.494 20.9755 154.728 21.6214 153.417 21.6214C151.603 21.6214 150.494 20.1161 150.407 18.1342H157.623V17.6189C157.623 14.8559 156.039 12.8923 153.417 12.8923Z" fill="white"/>
<path fill-rule="evenodd" clip-rule="evenodd" d="M105.735 17.0688C104.353 16.7275 103.434 16.2683 103.464 15.2754C103.488 14.4189 104.292 14.036 105.259 14.0698C105.999 14.096 106.679 14.385 107.153 15.0995L108.301 14.5484C107.73 13.483 106.772 12.8362 105.279 12.784C103.678 12.7299 102.244 13.6338 102.194 15.2899C102.145 16.945 103.457 17.8287 105.032 18.2134C106.535 18.577 107.243 19.0681 107.216 20.0233C107.184 21.0944 106.409 21.7112 105.231 21.6706C104.174 21.6339 103.437 20.9678 102.984 19.9894L101.759 20.5772C102.336 21.8833 103.491 22.9342 105.192 22.9942C107.338 23.0676 108.541 21.6465 108.589 20.0126C108.637 18.3962 107.572 17.5222 105.735 17.0688Z" fill="white"/>
</g>
</g>
<defs>
<clipPath id="clip0">
<rect width="200" height="31.9036" fill="white"/>
</clipPath>
</defs>
</svg>
